# xmcd
#
# Track frame offsets:
#	150
#	16340
#	32890
#	51385
#	69242
#	86542
#	105040
#	125357
#	140117
#	164287
#	181057
#	199830
#	217847
#	236492
#	257267
#	271952
#
# Disc length: 3864 seconds
#
# Revision: 2
# Processed by: cddbd v1.5.2PL0 Copyright (c) Steve Scherf et al.
# Submitted via: EasyCDDAExtractor 15.2.1.1
#
DISCID=d00f1610
DTITLE=Various Artist - Blues and Boogie Explosiion
DYEAR=1998
DGENRE=Blues
TTITLE0=Bob Hall, Ian Stewart - KC Jump
TTITLE1=Bob Hall, George Green - I Need You (Alternate Track)
TTITLE2=Bob Hall, George Green - All Night Long
TTITLE3=Bob Hall, Ian Stewart - Night Train
TTITLE4=Ian Stewart, George Green - Chicken Shack Boogie
TTITLE5=Various Artist - Back At The Chicken Shack
TTITLE6=Bob Hall, George Green - The Fish (Alternate Track)
TTITLE7=Bob Hall, Ian Stewart - The Rainmaker
TTITLE8=Bob Hall, George Green - Old Bill
TTITLE9=Bob Hall, Ian Stewart - KC Jump (Alternate Track)
TTITLE10=Bob Hall, George Green - I Need You
TTITLE11=Ian Stewart, George Green - Chicken Shack Boogie (Alternate Track)
TTITLE12=Various Artist - Back At The Chicken Shack
TTITLE13=Bob Hall, George Green - The Fish
TTITLE14=Bob Hall, Ian Stewart - The Rainmaker (Alternate Track)
TTITLE15=Bob Hall, George Green - Old Bill (Alternate Track)
EXTD=Recorded 1981 at Tonstudio Bauer Ludwigsburg\n\nJeton (Die Legende lebt)
EXTT0=
EXTT1=
EXTT2=
EXTT3=
EXTT4=
EXTT5=
EXTT6=
EXTT7=
EXTT8=
EXTT9=
EXTT10=
EXTT11=
EXTT12=
EXTT13=
EXTT14=
EXTT15=
PLAYORDER=
